<mxfile host="65bd71144e">
    <diagram id="J4sLGuqCfGLhZOt137nG" name="PÃ¡gina-1">
        <mxGraphModel dx="504" dy="437" grid="1" gridSize="10" guides="1" tooltips="1" connect="1" arrows="1" fold="1" page="1" pageScale="1" pageWidth="850" pageHeight="1100" math="0" shadow="0">
            <root>
                <mxCell id="0"/>
                <mxCell id="1" parent="0"/>
                <mxCell id="2" value="" style="swimlane;startSize=0;rounded=1;" vertex="1" parent="1">
                    <mxGeometry x="120" y="120" width="1360" height="950" as="geometry"/>
                </mxCell>
                <mxCell id="3" value="" style="edgeStyle=orthogonalEdgeStyle;rounded=1;orthogonalLoop=1;jettySize=auto;html=1;entryX=0.5;entryY=0;entryDx=0;entryDy=0;endArrow=none;endFill=0;startArrow=classic;startFill=1;dashed=1;exitX=0.5;exitY=1;exitDx=0;exitDy=0;" edge="1" parent="2" source="4" target="15">
                    <mxGeometry x="0.2" y="-19" relative="1" as="geometry">
                        <mxPoint x="129" y="630" as="sourcePoint"/>
                        <mxPoint as="offset"/>
                    </mxGeometry>
                </mxCell>
                <mxCell id="4" value="UC5&lt;br&gt;Log in" style="ellipse;whiteSpace=wrap;html=1;fillColor=#d5e8d4;strokeColor=#82b366;rounded=1;" vertex="1" parent="2">
                    <mxGeometry x="74" y="595" width="110" height="40" as="geometry"/>
                </mxCell>
                <mxCell id="5" value="UC32&lt;br&gt;Send data" style="ellipse;whiteSpace=wrap;html=1;fillColor=#e1d5e7;strokeColor=#9673a6;rounded=1;" vertex="1" parent="2">
                    <mxGeometry x="1180" y="40" width="110" height="40" as="geometry"/>
                </mxCell>
                <mxCell id="6" style="edgeStyle=orthogonalEdgeStyle;rounded=1;orthogonalLoop=1;jettySize=auto;html=1;entryX=0.5;entryY=0;entryDx=0;entryDy=0;" edge="1" parent="2" source="7" target="27">
                    <mxGeometry relative="1" as="geometry">
                        <Array as="points">
                            <mxPoint x="190" y="457"/>
                            <mxPoint x="190" y="380"/>
                            <mxPoint x="970" y="380"/>
                        </Array>
                    </mxGeometry>
                </mxCell>
                <mxCell id="7" value="UC6&lt;br&gt;Shopping in the store" style="ellipse;whiteSpace=wrap;html=1;fillColor=#d5e8d4;strokeColor=#82b366;rounded=1;" vertex="1" parent="2">
                    <mxGeometry x="74" y="436.75" width="110" height="40" as="geometry"/>
                </mxCell>
                <mxCell id="8" value="UC1&lt;br&gt;Sign up" style="ellipse;whiteSpace=wrap;html=1;fillColor=#d5e8d4;strokeColor=#82b366;rounded=1;" vertex="1" parent="2">
                    <mxGeometry x="74" y="30" width="110" height="40" as="geometry"/>
                </mxCell>
                <mxCell id="9" style="edgeStyle=orthogonalEdgeStyle;orthogonalLoop=1;jettySize=auto;html=1;entryX=0;entryY=0.5;entryDx=0;entryDy=0;exitX=1;exitY=0.5;exitDx=0;exitDy=0;" edge="1" parent="2" source="10" target="60">
                    <mxGeometry relative="1" as="geometry">
                        <mxPoint x="440.5" y="555.75" as="sourcePoint"/>
                        <Array as="points">
                            <mxPoint x="478.5" y="535"/>
                            <mxPoint x="478.5" y="535"/>
                        </Array>
                    </mxGeometry>
                </mxCell>
                <mxCell id="10" value="UC8&lt;br&gt;Play real price party mode" style="ellipse;whiteSpace=wrap;html=1;fillColor=#d5e8d4;strokeColor=#82b366;rounded=1;" vertex="1" parent="2">
                    <mxGeometry x="330" y="515" width="110" height="40" as="geometry"/>
                </mxCell>
                <mxCell id="11" value="UC2&lt;br&gt;Play guest party mode" style="ellipse;whiteSpace=wrap;html=1;fillColor=#d5e8d4;strokeColor=#82b366;rounded=1;" vertex="1" parent="2">
                    <mxGeometry x="74" y="80" width="110" height="40" as="geometry"/>
                </mxCell>
                <mxCell id="12" value="" style="endArrow=none;html=1;rounded=1;entryX=0;entryY=0.5;entryDx=0;entryDy=0;exitX=1;exitY=0;exitDx=0;exitDy=0;endFill=0;startArrow=classic;startFill=1;dashed=1;" edge="1" parent="2" source="4" target="10">
                    <mxGeometry width="50" height="50" relative="1" as="geometry">
                        <mxPoint x="364" y="521" as="sourcePoint"/>
                        <mxPoint x="340" y="505" as="targetPoint"/>
                    </mxGeometry>
                </mxCell>
                <mxCell id="13" value="UC3&lt;br&gt;Visit store" style="ellipse;whiteSpace=wrap;html=1;fillColor=#d5e8d4;strokeColor=#82b366;rounded=1;" vertex="1" parent="2">
                    <mxGeometry x="74" y="130" width="110" height="40" as="geometry"/>
                </mxCell>
                <mxCell id="14" value="UC4&lt;br&gt;&lt;div&gt;Basic settings&lt;/div&gt;" style="ellipse;whiteSpace=wrap;html=1;fillColor=#d5e8d4;strokeColor=#82b366;rounded=1;" vertex="1" parent="2">
                    <mxGeometry x="74" y="180" width="110" height="40" as="geometry"/>
                </mxCell>
                <mxCell id="15" value="UC14&lt;br&gt;Consult scoreboards" style="ellipse;whiteSpace=wrap;html=1;fillColor=#d5e8d4;strokeColor=#82b366;rounded=1;" vertex="1" parent="2">
                    <mxGeometry x="74" y="890" width="110" height="40" as="geometry"/>
                </mxCell>
                <mxCell id="16" value="UC9&lt;br&gt;Play friends party mode" style="ellipse;whiteSpace=wrap;html=1;fillColor=#d5e8d4;strokeColor=#82b366;rounded=1;" vertex="1" parent="2">
                    <mxGeometry x="330" y="597" width="110" height="40" as="geometry"/>
                </mxCell>
                <mxCell id="17" style="edgeStyle=orthogonalEdgeStyle;orthogonalLoop=1;jettySize=auto;html=1;entryX=0;entryY=0.5;entryDx=0;entryDy=0;startArrow=classic;startFill=1;endArrow=none;endFill=0;dashed=1;" edge="1" parent="2" source="19" target="37">
                    <mxGeometry relative="1" as="geometry"/>
                </mxCell>
                <mxCell id="18" style="edgeStyle=orthogonalEdgeStyle;orthogonalLoop=1;jettySize=auto;html=1;entryX=0;entryY=0.5;entryDx=0;entryDy=0;startArrow=classic;startFill=1;endArrow=none;endFill=0;dashed=1;" edge="1" parent="2" source="19" target="35">
                    <mxGeometry relative="1" as="geometry"/>
                </mxCell>
                <mxCell id="19" value="UC11&lt;br&gt;Search player" style="ellipse;whiteSpace=wrap;html=1;fillColor=#d5e8d4;strokeColor=#82b366;rounded=1;" vertex="1" parent="2">
                    <mxGeometry x="330" y="755" width="110" height="40" as="geometry"/>
                </mxCell>
                <mxCell id="20" style="edgeStyle=orthogonalEdgeStyle;orthogonalLoop=1;jettySize=auto;html=1;entryX=0;entryY=0.5;entryDx=0;entryDy=0;startArrow=classic;startFill=1;endArrow=none;endFill=0;dashed=1;exitX=1;exitY=0.5;exitDx=0;exitDy=0;" edge="1" parent="2" source="16" target="52">
                    <mxGeometry relative="1" as="geometry">
                        <mxPoint x="720" y="623.16" as="sourcePoint"/>
                    </mxGeometry>
                </mxCell>
                <mxCell id="21" style="edgeStyle=orthogonalEdgeStyle;orthogonalLoop=1;jettySize=auto;html=1;entryX=0;entryY=0.5;entryDx=0;entryDy=0;dashed=1;startArrow=classic;startFill=1;endArrow=none;endFill=0;exitX=1;exitY=0.5;exitDx=0;exitDy=0;" edge="1" parent="2" source="16" target="53">
                    <mxGeometry relative="1" as="geometry">
                        <mxPoint x="720" y="623.16" as="sourcePoint"/>
                    </mxGeometry>
                </mxCell>
                <mxCell id="22" value="" style="endArrow=none;dashed=1;html=1;rounded=1;exitX=1;exitY=0.5;exitDx=0;exitDy=0;entryX=0;entryY=0.5;entryDx=0;entryDy=0;startArrow=classic;startFill=1;" edge="1" parent="2" source="4" target="16">
                    <mxGeometry width="50" height="50" relative="1" as="geometry">
                        <mxPoint x="400" y="765" as="sourcePoint"/>
                        <mxPoint x="450" y="715" as="targetPoint"/>
                    </mxGeometry>
                </mxCell>
                <mxCell id="23" value="" style="endArrow=none;html=1;rounded=1;entryX=0.5;entryY=1;entryDx=0;entryDy=0;exitX=0.5;exitY=0;exitDx=0;exitDy=0;endFill=0;startArrow=classic;startFill=1;dashed=1;" edge="1" parent="2" source="4" target="7">
                    <mxGeometry width="50" height="50" relative="1" as="geometry">
                        <mxPoint x="335" y="285" as="sourcePoint"/>
                        <mxPoint x="496" y="395" as="targetPoint"/>
                    </mxGeometry>
                </mxCell>
                <mxCell id="24" value="UC10&lt;br&gt;Personalice skins" style="ellipse;whiteSpace=wrap;html=1;fillColor=#d5e8d4;strokeColor=#82b366;rounded=1;" vertex="1" parent="2">
                    <mxGeometry x="330" y="680" width="110" height="40" as="geometry"/>
                </mxCell>
                <mxCell id="25" style="edgeStyle=orthogonalEdgeStyle;orthogonalLoop=1;jettySize=auto;html=1;entryX=0;entryY=0.5;entryDx=0;entryDy=0;dashed=1;endArrow=none;endFill=0;startArrow=classic;startFill=1;exitX=1;exitY=0.5;exitDx=0;exitDy=0;" edge="1" parent="2" source="27" target="48">
                    <mxGeometry relative="1" as="geometry">
                        <mxPoint x="1030" y="370" as="sourcePoint"/>
                    </mxGeometry>
                </mxCell>
                <mxCell id="26" style="edgeStyle=orthogonalEdgeStyle;orthogonalLoop=1;jettySize=auto;html=1;entryX=0;entryY=0.5;entryDx=0;entryDy=0;dashed=1;startArrow=classic;startFill=1;endArrow=none;endFill=0;exitX=1;exitY=0.5;exitDx=0;exitDy=0;" edge="1" parent="2" source="27" target="49">
                    <mxGeometry relative="1" as="geometry">
                        <mxPoint x="1030" y="370" as="sourcePoint"/>
                    </mxGeometry>
                </mxCell>
                <mxCell id="27" value="UC18&lt;br&gt;Check enough necessary token" style="ellipse;whiteSpace=wrap;html=1;fillColor=#e1d5e7;strokeColor=#9673a6;rounded=1;" vertex="1" parent="2">
                    <mxGeometry x="910" y="435" width="120" height="55" as="geometry"/>
                </mxCell>
                <mxCell id="28" value="extend" style="text;html=1;align=center;verticalAlign=middle;resizable=0;points=[];autosize=1;strokeColor=none;fillColor=none;rounded=1;" vertex="1" parent="2">
                    <mxGeometry x="149.99999999999994" y="494" width="60" height="30" as="geometry"/>
                </mxCell>
                <mxCell id="29" value="extend" style="text;html=1;align=center;verticalAlign=middle;resizable=0;points=[];autosize=1;strokeColor=none;fillColor=none;rounded=1;" vertex="1" parent="2">
                    <mxGeometry x="59.99999999999994" y="495" width="60" height="30" as="geometry"/>
                </mxCell>
                <mxCell id="30" value="include" style="text;html=1;align=center;verticalAlign=middle;resizable=0;points=[];autosize=1;strokeColor=none;fillColor=none;rounded=1;" vertex="1" parent="2">
                    <mxGeometry x="640" y="507.25" width="60" height="30" as="geometry"/>
                </mxCell>
                <mxCell id="31" value="include" style="text;html=1;align=center;verticalAlign=middle;resizable=0;points=[];autosize=1;strokeColor=none;fillColor=none;rounded=1;" vertex="1" parent="2">
                    <mxGeometry x="514" y="350" width="60" height="30" as="geometry"/>
                </mxCell>
                <mxCell id="32" value="UC13&lt;br&gt;Advanced settings" style="ellipse;whiteSpace=wrap;html=1;fillColor=#d5e8d4;strokeColor=#82b366;rounded=1;" vertex="1" parent="2">
                    <mxGeometry x="210" y="890" width="110" height="40" as="geometry"/>
                </mxCell>
                <mxCell id="33" value="" style="endArrow=none;dashed=1;html=1;rounded=1;entryX=0;entryY=0;entryDx=0;entryDy=0;startArrow=classic;startFill=1;exitX=0.612;exitY=0.979;exitDx=0;exitDy=0;exitPerimeter=0;" edge="1" parent="2" source="4" target="32">
                    <mxGeometry width="50" height="50" relative="1" as="geometry">
                        <mxPoint x="135.89356318274918" y="670.00228321521" as="sourcePoint"/>
                        <mxPoint x="356.1091270347399" y="766.0178643762689" as="targetPoint"/>
                    </mxGeometry>
                </mxCell>
                <mxCell id="34" value="UC33&lt;br&gt;Receive data" style="ellipse;whiteSpace=wrap;html=1;fillColor=#e1d5e7;strokeColor=#9673a6;rounded=1;" vertex="1" parent="2">
                    <mxGeometry x="1180" y="100" width="110" height="40" as="geometry"/>
                </mxCell>
                <mxCell id="35" value="UC28&lt;br&gt;Send friend request" style="ellipse;whiteSpace=wrap;html=1;fillColor=#dae8fc;strokeColor=#6c8ebf;rounded=1;" vertex="1" parent="2">
                    <mxGeometry x="597" y="730" width="110" height="40" as="geometry"/>
                </mxCell>
                <mxCell id="36" value="extend" style="text;html=1;align=center;verticalAlign=middle;resizable=0;points=[];autosize=1;strokeColor=none;fillColor=none;rounded=1;" vertex="1" parent="2">
                    <mxGeometry x="517" y="720" width="60" height="30" as="geometry"/>
                </mxCell>
                <mxCell id="37" value="UC29&lt;br&gt;Consult player stats" style="ellipse;whiteSpace=wrap;html=1;fillColor=#dae8fc;strokeColor=#6c8ebf;rounded=1;" vertex="1" parent="2">
                    <mxGeometry x="597" y="780" width="110" height="40" as="geometry"/>
                </mxCell>
                <mxCell id="38" style="edgeStyle=orthogonalEdgeStyle;orthogonalLoop=1;jettySize=auto;html=1;entryX=0;entryY=0.5;entryDx=0;entryDy=0;dashed=1;startArrow=classic;startFill=1;endArrow=none;endFill=0;" edge="1" parent="2" source="40" target="43">
                    <mxGeometry relative="1" as="geometry"/>
                </mxCell>
                <mxCell id="39" style="edgeStyle=orthogonalEdgeStyle;orthogonalLoop=1;jettySize=auto;html=1;entryX=0;entryY=0.5;entryDx=0;entryDy=0;dashed=1;endArrow=none;endFill=0;startArrow=classic;startFill=1;" edge="1" parent="2" source="40" target="45">
                    <mxGeometry relative="1" as="geometry"/>
                </mxCell>
                <mxCell id="40" value="UC12&lt;br&gt;Receive friend request" style="ellipse;whiteSpace=wrap;html=1;fillColor=#e1d5e7;strokeColor=#9673a6;rounded=1;" vertex="1" parent="2">
                    <mxGeometry x="330" y="840" width="110" height="40" as="geometry"/>
                </mxCell>
                <mxCell id="41" value="extend" style="text;html=1;align=center;verticalAlign=middle;resizable=0;points=[];autosize=1;strokeColor=none;fillColor=none;rounded=1;" vertex="1" parent="2">
                    <mxGeometry x="517" y="770" width="60" height="30" as="geometry"/>
                </mxCell>
                <mxCell id="42" value="" style="endArrow=none;dashed=1;html=1;rounded=1;entryX=0;entryY=0.5;entryDx=0;entryDy=0;startArrow=classic;startFill=1;exitX=0.751;exitY=0.921;exitDx=0;exitDy=0;exitPerimeter=0;" edge="1" parent="2" source="4" target="40">
                    <mxGeometry width="50" height="50" relative="1" as="geometry">
                        <mxPoint x="160" y="630" as="sourcePoint"/>
                        <mxPoint x="340" y="695" as="targetPoint"/>
                    </mxGeometry>
                </mxCell>
                <mxCell id="43" value="UC30&lt;br&gt;Accept friend request" style="ellipse;whiteSpace=wrap;html=1;fillColor=#dae8fc;strokeColor=#6c8ebf;rounded=1;" vertex="1" parent="2">
                    <mxGeometry x="597" y="840" width="110" height="40" as="geometry"/>
                </mxCell>
                <mxCell id="44" value="extend" style="text;html=1;align=center;verticalAlign=middle;resizable=0;points=[];autosize=1;strokeColor=none;fillColor=none;rounded=1;" vertex="1" parent="2">
                    <mxGeometry x="517" y="840" width="60" height="30" as="geometry"/>
                </mxCell>
                <mxCell id="45" value="UC31&lt;br&gt;Decline friend request" style="ellipse;whiteSpace=wrap;html=1;fillColor=#dae8fc;strokeColor=#6c8ebf;rounded=1;" vertex="1" parent="2">
                    <mxGeometry x="597" y="890" width="110" height="40" as="geometry"/>
                </mxCell>
                <mxCell id="46" value="extend" style="text;html=1;align=center;verticalAlign=middle;resizable=0;points=[];autosize=1;strokeColor=none;fillColor=none;rounded=1;" vertex="1" parent="2">
                    <mxGeometry x="517" y="880" width="60" height="30" as="geometry"/>
                </mxCell>
                <mxCell id="47" style="edgeStyle=orthogonalEdgeStyle;orthogonalLoop=1;jettySize=auto;html=1;entryX=0.5;entryY=0;entryDx=0;entryDy=0;" edge="1" parent="2" source="48" target="65">
                    <mxGeometry relative="1" as="geometry"/>
                </mxCell>
                <mxCell id="48" value="UC24&lt;br&gt;Deny operation" style="ellipse;whiteSpace=wrap;html=1;fillColor=#e1d5e7;strokeColor=#9673a6;rounded=1;" vertex="1" parent="2">
                    <mxGeometry x="1126" y="467.5" width="110" height="40" as="geometry"/>
                </mxCell>
                <mxCell id="49" value="UC23&lt;br&gt;Approve operation" style="ellipse;whiteSpace=wrap;html=1;fillColor=#e1d5e7;strokeColor=#9673a6;rounded=1;" vertex="1" parent="2">
                    <mxGeometry x="1126" y="414.5" width="110" height="40" as="geometry"/>
                </mxCell>
                <mxCell id="50" value="extend" style="text;html=1;align=center;verticalAlign=middle;resizable=0;points=[];autosize=1;strokeColor=none;fillColor=none;rounded=1;" vertex="1" parent="2">
                    <mxGeometry x="1075" y="409.5" width="60" height="30" as="geometry"/>
                </mxCell>
                <mxCell id="51" value="extend" style="text;html=1;align=center;verticalAlign=middle;resizable=0;points=[];autosize=1;strokeColor=none;fillColor=none;rounded=1;" vertex="1" parent="2">
                    <mxGeometry x="1075" y="464.5" width="60" height="30" as="geometry"/>
                </mxCell>
                <mxCell id="52" value="UC25&lt;br&gt;Join game room" style="ellipse;whiteSpace=wrap;html=1;fillColor=#dae8fc;strokeColor=#6c8ebf;rounded=1;" vertex="1" parent="2">
                    <mxGeometry x="594" y="575" width="110" height="40" as="geometry"/>
                </mxCell>
                <mxCell id="53" value="UC26&lt;br&gt;Create game room" style="ellipse;whiteSpace=wrap;html=1;fillColor=#dae8fc;strokeColor=#6c8ebf;rounded=1;" vertex="1" parent="2">
                    <mxGeometry x="597" y="621" width="110" height="40" as="geometry"/>
                </mxCell>
                <mxCell id="54" style="edgeStyle=orthogonalEdgeStyle;orthogonalLoop=1;jettySize=auto;html=1;entryX=0;entryY=0.5;entryDx=0;entryDy=0;dashed=1;startArrow=classic;startFill=1;endArrow=none;endFill=0;exitX=1;exitY=0.5;exitDx=0;exitDy=0;" edge="1" parent="2" source="53" target="55">
                    <mxGeometry relative="1" as="geometry">
                        <mxPoint x="720" y="623.16" as="sourcePoint"/>
                    </mxGeometry>
                </mxCell>
                <mxCell id="55" value="UC27&lt;br&gt;Invite friends" style="ellipse;whiteSpace=wrap;html=1;fillColor=#dae8fc;strokeColor=#6c8ebf;rounded=1;" vertex="1" parent="2">
                    <mxGeometry x="780" y="621" width="110" height="40" as="geometry"/>
                </mxCell>
                <mxCell id="56" value="extend" style="text;html=1;align=center;verticalAlign=middle;resizable=0;points=[];autosize=1;strokeColor=none;fillColor=none;rounded=1;" vertex="1" parent="2">
                    <mxGeometry x="720" y="615" width="60" height="30" as="geometry"/>
                </mxCell>
                <mxCell id="57" value="extend" style="text;html=1;align=center;verticalAlign=middle;resizable=0;points=[];autosize=1;strokeColor=none;fillColor=none;rounded=1;" vertex="1" parent="2">
                    <mxGeometry x="514" y="615" width="60" height="30" as="geometry"/>
                </mxCell>
                <mxCell id="58" value="extend" style="text;html=1;align=center;verticalAlign=middle;resizable=0;points=[];autosize=1;strokeColor=none;fillColor=none;rounded=1;" vertex="1" parent="2">
                    <mxGeometry x="514" y="572" width="60" height="30" as="geometry"/>
                </mxCell>
                <mxCell id="59" style="edgeStyle=orthogonalEdgeStyle;orthogonalLoop=1;jettySize=auto;html=1;entryX=0;entryY=0.5;entryDx=0;entryDy=0;" edge="1" parent="2" source="60" target="62">
                    <mxGeometry relative="1" as="geometry"/>
                </mxCell>
                <mxCell id="60" value="UC16&lt;br&gt;Select table size" style="ellipse;whiteSpace=wrap;html=1;fillColor=#dae8fc;strokeColor=#6c8ebf;rounded=1;" vertex="1" parent="2">
                    <mxGeometry x="515.5" y="515" width="110" height="40" as="geometry"/>
                </mxCell>
                <mxCell id="61" style="edgeStyle=orthogonalEdgeStyle;orthogonalLoop=1;jettySize=auto;html=1;entryX=0.5;entryY=1;entryDx=0;entryDy=0;" edge="1" parent="2" source="62" target="27">
                    <mxGeometry relative="1" as="geometry">
                        <Array as="points">
                            <mxPoint x="970" y="535"/>
                        </Array>
                    </mxGeometry>
                </mxCell>
                <mxCell id="62" value="UC17&lt;br&gt;Select stake level" style="ellipse;whiteSpace=wrap;html=1;fillColor=#dae8fc;strokeColor=#6c8ebf;rounded=1;" vertex="1" parent="2">
                    <mxGeometry x="710" y="515" width="110" height="40" as="geometry"/>
                </mxCell>
                <mxCell id="63" value="include" style="text;html=1;align=center;verticalAlign=middle;resizable=0;points=[];autosize=1;strokeColor=none;fillColor=none;rounded=1;" vertex="1" parent="2">
                    <mxGeometry x="850" y="507.25" width="60" height="30" as="geometry"/>
                </mxCell>
                <mxCell id="64" value="include" style="text;html=1;align=center;verticalAlign=middle;resizable=0;points=[];autosize=1;strokeColor=none;fillColor=none;rounded=1;" vertex="1" parent="2">
                    <mxGeometry x="440" y="504" width="60" height="30" as="geometry"/>
                </mxCell>
                <mxCell id="65" value="UC19&lt;br&gt;Check credit card" style="ellipse;whiteSpace=wrap;html=1;fillColor=#e1d5e7;strokeColor=#9673a6;rounded=1;" vertex="1" parent="2">
                    <mxGeometry x="1126" y="546.5" width="110" height="40" as="geometry"/>
                </mxCell>
                <mxCell id="66" value="UC7&lt;br&gt;Play virtual party mode" style="ellipse;whiteSpace=wrap;html=1;fillColor=#d5e8d4;strokeColor=#82b366;rounded=1;" vertex="1" parent="2">
                    <mxGeometry x="220" y="435" width="110" height="40" as="geometry"/>
                </mxCell>
                <mxCell id="67" style="edgeStyle=orthogonalEdgeStyle;orthogonalLoop=1;jettySize=auto;html=1;entryX=1;entryY=0.5;entryDx=0;entryDy=0;exitX=0.5;exitY=0;exitDx=0;exitDy=0;startArrow=classic;startFill=1;endArrow=none;endFill=0;" edge="1" parent="2" source="60" target="66">
                    <mxGeometry relative="1" as="geometry"/>
                </mxCell>
                <mxCell id="68" value="" style="endArrow=none;html=1;rounded=1;entryX=0;entryY=1;entryDx=0;entryDy=0;exitX=0.697;exitY=0.038;exitDx=0;exitDy=0;endFill=0;startArrow=classic;startFill=1;dashed=1;exitPerimeter=0;" edge="1" parent="2" source="4" target="66">
                    <mxGeometry width="50" height="50" relative="1" as="geometry">
                        <mxPoint x="178" y="611" as="sourcePoint"/>
                        <mxPoint x="345" y="559" as="targetPoint"/>
                    </mxGeometry>
                </mxCell>
                <mxCell id="69" value="extend" style="text;html=1;align=center;verticalAlign=middle;resizable=0;points=[];autosize=1;strokeColor=none;fillColor=none;rounded=1;" vertex="1" parent="2">
                    <mxGeometry x="232.99999999999994" y="530.75" width="60" height="30" as="geometry"/>
                </mxCell>
                <mxCell id="70" value="extend" style="text;html=1;align=center;verticalAlign=middle;resizable=0;points=[];autosize=1;strokeColor=none;fillColor=none;rounded=1;" vertex="1" parent="2">
                    <mxGeometry x="70" y="364" width="60" height="30" as="geometry"/>
                </mxCell>
                <mxCell id="71" value="" style="endArrow=classic;dashed=1;html=1;entryX=0.954;entryY=0.715;entryDx=0;entryDy=0;exitX=0;exitY=0.5;exitDx=0;exitDy=0;startArrow=none;startFill=0;endFill=1;entryPerimeter=0;" edge="1" parent="2" source="24" target="4">
                    <mxGeometry width="50" height="50" relative="1" as="geometry">
                        <mxPoint x="240" y="720" as="sourcePoint"/>
                        <mxPoint x="290" y="670" as="targetPoint"/>
                    </mxGeometry>
                </mxCell>
                <mxCell id="72" value="" style="endArrow=classic;dashed=1;html=1;exitX=0;exitY=0.5;exitDx=0;exitDy=0;startArrow=none;startFill=0;endFill=1;entryX=1;entryY=1;entryDx=0;entryDy=0;" edge="1" parent="2" source="19" target="4">
                    <mxGeometry width="50" height="50" relative="1" as="geometry">
                        <mxPoint x="340" y="710" as="sourcePoint"/>
                        <mxPoint x="194" y="625" as="targetPoint"/>
                    </mxGeometry>
                </mxCell>
                <mxCell id="73" value="" style="edgeStyle=orthogonalEdgeStyle;orthogonalLoop=1;jettySize=auto;html=1;dashed=1;" edge="1" parent="2" source="75" target="7">
                    <mxGeometry relative="1" as="geometry"/>
                </mxCell>
                <mxCell id="74" style="edgeStyle=orthogonalEdgeStyle;rounded=1;orthogonalLoop=1;jettySize=auto;html=1;entryX=1;entryY=0.5;entryDx=0;entryDy=0;" edge="1" parent="2" source="75" target="65">
                    <mxGeometry relative="1" as="geometry">
                        <Array as="points">
                            <mxPoint x="1280" y="310"/>
                            <mxPoint x="1280" y="567"/>
                        </Array>
                    </mxGeometry>
                </mxCell>
                <mxCell id="75" value="UC15&lt;br&gt;Buy diamonds" style="ellipse;whiteSpace=wrap;html=1;fillColor=#dae8fc;strokeColor=#6c8ebf;rounded=1;" vertex="1" parent="2">
                    <mxGeometry x="74" y="290" width="110" height="40" as="geometry"/>
                </mxCell>
                <mxCell id="76" value="include" style="text;html=1;align=center;verticalAlign=middle;resizable=0;points=[];autosize=1;strokeColor=none;fillColor=none;rounded=1;" vertex="1" parent="2">
                    <mxGeometry x="680" y="280" width="60" height="30" as="geometry"/>
                </mxCell>
                <mxCell id="77" value="UC20&lt;br&gt;Credit card exist" style="ellipse;whiteSpace=wrap;html=1;fillColor=#e1d5e7;strokeColor=#9673a6;rounded=1;" vertex="1" parent="2">
                    <mxGeometry x="1050" y="655.5" width="110" height="40" as="geometry"/>
                </mxCell>
                <mxCell id="78" style="edgeStyle=orthogonalEdgeStyle;orthogonalLoop=1;jettySize=auto;html=1;entryX=0.5;entryY=1;entryDx=0;entryDy=0;dashed=1;startArrow=none;startFill=0;endArrow=classic;endFill=1;" edge="1" parent="2" source="77" target="65">
                    <mxGeometry relative="1" as="geometry"/>
                </mxCell>
                <mxCell id="79" value="extend" style="text;html=1;align=center;verticalAlign=middle;resizable=0;points=[];autosize=1;strokeColor=none;fillColor=none;rounded=1;" vertex="1" parent="2">
                    <mxGeometry x="1115" y="595.5" width="60" height="30" as="geometry"/>
                </mxCell>
                <mxCell id="80" value="extend" style="text;html=1;align=center;verticalAlign=middle;resizable=0;points=[];autosize=1;strokeColor=none;fillColor=none;rounded=1;" vertex="1" parent="2">
                    <mxGeometry x="1185" y="595.5" width="60" height="30" as="geometry"/>
                </mxCell>
                <mxCell id="81" style="edgeStyle=orthogonalEdgeStyle;orthogonalLoop=1;jettySize=auto;html=1;entryX=0.5;entryY=0;entryDx=0;entryDy=0;" edge="1" parent="2" source="82" target="84">
                    <mxGeometry relative="1" as="geometry"/>
                </mxCell>
                <mxCell id="82" value="UC21&lt;br&gt;Credit card not exist" style="ellipse;whiteSpace=wrap;html=1;fillColor=#e1d5e7;strokeColor=#9673a6;rounded=1;" vertex="1" parent="2">
                    <mxGeometry x="1205" y="656.74" width="110" height="40" as="geometry"/>
                </mxCell>
                <mxCell id="83" style="edgeStyle=orthogonalEdgeStyle;orthogonalLoop=1;jettySize=auto;html=1;entryX=0.5;entryY=1;entryDx=0;entryDy=0;dashed=1;startArrow=none;startFill=0;endArrow=classic;endFill=1;" edge="1" parent="2" source="82" target="65">
                    <mxGeometry relative="1" as="geometry"/>
                </mxCell>
                <mxCell id="84" value="UC22&lt;br&gt;Add credit card" style="ellipse;whiteSpace=wrap;html=1;fillColor=#dae8fc;strokeColor=#6c8ebf;rounded=1;" vertex="1" parent="2">
                    <mxGeometry x="1205" y="740" width="110" height="40.5" as="geometry"/>
                </mxCell>
                <mxCell id="85" value="include" style="text;html=1;align=center;verticalAlign=middle;resizable=0;points=[];autosize=1;strokeColor=none;fillColor=none;rounded=1;" vertex="1" parent="2">
                    <mxGeometry x="1265" y="705.5" width="60" height="30" as="geometry"/>
                </mxCell>
                <mxCell id="86" value="include" style="text;html=1;align=center;verticalAlign=middle;resizable=0;points=[];autosize=1;strokeColor=none;fillColor=none;rounded=1;" vertex="1" parent="2">
                    <mxGeometry x="1185" y="510.5" width="60" height="30" as="geometry"/>
                </mxCell>
                <mxCell id="87" value="System: TableStars" style="text;html=1;align=center;verticalAlign=middle;resizable=0;points=[];autosize=1;strokeColor=none;fillColor=none;labelPosition=center;verticalLabelPosition=middle;" vertex="1" parent="2">
                    <mxGeometry x="570" width="130" height="30" as="geometry"/>
                </mxCell>
                <mxCell id="88" value="include" style="text;html=1;align=center;verticalAlign=middle;resizable=0;points=[];autosize=1;strokeColor=none;fillColor=none;rounded=1;" vertex="1" parent="2">
                    <mxGeometry x="380" y="424.5" width="60" height="30" as="geometry"/>
                </mxCell>
                <mxCell id="89" value="extend" style="text;html=1;align=center;verticalAlign=middle;resizable=0;points=[];autosize=1;strokeColor=none;fillColor=none;rounded=1;" vertex="1" parent="2">
                    <mxGeometry x="244.99999999999994" y="585" width="60" height="30" as="geometry"/>
                </mxCell>
                <mxCell id="90" value="extend" style="text;html=1;align=center;verticalAlign=middle;resizable=0;points=[];autosize=1;strokeColor=none;fillColor=none;rounded=1;" vertex="1" parent="2">
                    <mxGeometry x="269.99999999999994" y="637" width="60" height="30" as="geometry"/>
                </mxCell>
                <mxCell id="91" value="extend" style="text;html=1;align=center;verticalAlign=middle;resizable=0;points=[];autosize=1;strokeColor=none;fillColor=none;rounded=1;" vertex="1" parent="2">
                    <mxGeometry x="263.99999999999994" y="690" width="60" height="30" as="geometry"/>
                </mxCell>
                <mxCell id="92" value="extend" style="text;html=1;align=center;verticalAlign=middle;resizable=0;points=[];autosize=1;strokeColor=none;fillColor=none;rounded=1;" vertex="1" parent="2">
                    <mxGeometry x="259.99999999999994" y="750.5" width="60" height="30" as="geometry"/>
                </mxCell>
                <mxCell id="93" value="extend" style="text;html=1;align=center;verticalAlign=middle;resizable=0;points=[];autosize=1;strokeColor=none;fillColor=none;rounded=1;" vertex="1" parent="2">
                    <mxGeometry x="219.99999999999994" y="830" width="60" height="30" as="geometry"/>
                </mxCell>
                <mxCell id="94" value="extend" style="text;html=1;align=center;verticalAlign=middle;resizable=0;points=[];autosize=1;strokeColor=none;fillColor=none;rounded=1;" vertex="1" parent="2">
                    <mxGeometry x="129.99999999999994" y="830" width="60" height="30" as="geometry"/>
                </mxCell>
                <mxCell id="95" style="edgeStyle=orthogonalEdgeStyle;rounded=1;orthogonalLoop=1;jettySize=auto;html=1;entryX=0.5;entryY=0.5;entryDx=0;entryDy=0;entryPerimeter=0;exitX=0.5;exitY=0.5;exitDx=0;exitDy=0;exitPerimeter=0;" edge="1" parent="1" source="97" target="105">
                    <mxGeometry relative="1" as="geometry">
                        <Array as="points">
                            <mxPoint x="30" y="695"/>
                            <mxPoint x="30" y="200"/>
                        </Array>
                    </mxGeometry>
                </mxCell>
                <mxCell id="96" style="edgeStyle=orthogonalEdgeStyle;rounded=1;orthogonalLoop=1;jettySize=auto;html=1;entryX=0;entryY=0.5;entryDx=0;entryDy=0;endArrow=none;endFill=0;" edge="1" parent="1" source="97" target="4">
                    <mxGeometry relative="1" as="geometry"/>
                </mxCell>
                <mxCell id="97" value="User" style="shape=umlActor;verticalLabelPosition=bottom;verticalAlign=top;html=1;outlineConnect=0;rounded=1;" vertex="1" parent="1">
                    <mxGeometry x="50" y="665" width="30" height="60" as="geometry"/>
                </mxCell>
                <mxCell id="98" style="edgeStyle=orthogonalEdgeStyle;orthogonalLoop=1;jettySize=auto;html=1;entryX=1;entryY=0.5;entryDx=0;entryDy=0;endArrow=none;endFill=0;curved=1;" edge="1" parent="1" source="100" target="5">
                    <mxGeometry relative="1" as="geometry"/>
                </mxCell>
                <mxCell id="99" style="edgeStyle=orthogonalEdgeStyle;rounded=1;orthogonalLoop=1;jettySize=auto;html=1;entryX=1;entryY=0.5;entryDx=0;entryDy=0;endArrow=none;endFill=0;" edge="1" parent="1" source="100" target="34">
                    <mxGeometry relative="1" as="geometry"/>
                </mxCell>
                <mxCell id="100" value="Database" style="shape=umlActor;verticalLabelPosition=bottom;verticalAlign=top;html=1;outlineConnect=0;rounded=1;" vertex="1" parent="1">
                    <mxGeometry x="1510" y="150" width="30" height="60" as="geometry"/>
                </mxCell>
                <mxCell id="101" style="edgeStyle=orthogonalEdgeStyle;rounded=1;orthogonalLoop=1;jettySize=auto;html=1;entryX=0;entryY=0.5;entryDx=0;entryDy=0;endArrow=none;endFill=0;" edge="1" parent="1" source="105" target="8">
                    <mxGeometry relative="1" as="geometry">
                        <Array as="points">
                            <mxPoint x="160" y="200"/>
                            <mxPoint x="160" y="170"/>
                        </Array>
                    </mxGeometry>
                </mxCell>
                <mxCell id="102" style="edgeStyle=orthogonalEdgeStyle;rounded=1;orthogonalLoop=1;jettySize=auto;html=1;entryX=0;entryY=0.5;entryDx=0;entryDy=0;endArrow=none;endFill=0;" edge="1" parent="1" source="105" target="11">
                    <mxGeometry relative="1" as="geometry">
                        <Array as="points">
                            <mxPoint x="160" y="200"/>
                            <mxPoint x="160" y="220"/>
                        </Array>
                    </mxGeometry>
                </mxCell>
                <mxCell id="103" style="edgeStyle=orthogonalEdgeStyle;rounded=1;orthogonalLoop=1;jettySize=auto;html=1;entryX=0;entryY=0.5;entryDx=0;entryDy=0;endArrow=none;endFill=0;" edge="1" parent="1" source="105" target="13">
                    <mxGeometry relative="1" as="geometry">
                        <Array as="points">
                            <mxPoint x="160" y="200"/>
                            <mxPoint x="160" y="270"/>
                        </Array>
                    </mxGeometry>
                </mxCell>
                <mxCell id="104" style="edgeStyle=orthogonalEdgeStyle;rounded=1;orthogonalLoop=1;jettySize=auto;html=1;entryX=0;entryY=0.5;entryDx=0;entryDy=0;endArrow=none;endFill=0;" edge="1" parent="1" source="105" target="14">
                    <mxGeometry relative="1" as="geometry">
                        <Array as="points">
                            <mxPoint x="160" y="200"/>
                            <mxPoint x="160" y="320"/>
                        </Array>
                    </mxGeometry>
                </mxCell>
                <mxCell id="105" value="Guest" style="shape=umlActor;verticalLabelPosition=bottom;verticalAlign=top;html=1;outlineConnect=0;rounded=1;" vertex="1" parent="1">
                    <mxGeometry x="50" y="170" width="30" height="60" as="geometry"/>
                </mxCell>
            </root>
        </mxGraphModel>
    </diagram>
</mxfile>